<?xml version="1.0" encoding="utf-8"?>
<!-- Generator: Adobe Illustrator 24.3.0, SVG Export Plug-In . SVG Version: 6.00 Build 0)  -->
<svg version="1.1" id="Capa_1" xmlns="http://www.w3.org/2000/svg" xmlns:xlink="http://www.w3.org/1999/xlink" x="0px" y="0px"
	 viewBox="0 0 43 23" style="enable-background:new 0 0 43 23;" xml:space="preserve">
<path d="M1.1,21.9V1.2h5.3l2.8,7.2c0.2,0.4,0.3,0.9,0.5,1.5c0.2,0.6,0.4,1.2,0.6,1.9l0.6,1.8c-0.2-1.8-0.4-3.3-0.5-4.6
	c-0.1-1.3-0.2-2.3-0.2-3.2V1.2h5.3v20.6h-5.3l-2.8-7.6c-0.3-0.8-0.6-1.6-0.8-2.3c-0.2-0.7-0.4-1.4-0.6-2c0.1,1.5,0.2,2.7,0.3,3.8
	c0.1,1.1,0.1,2,0.1,2.8v5.3H1.1z"/>
<path d="M24,21.9h-5.6v-8.7L13.3,1.2h5.8l1,3.1c0.2,0.6,0.4,1.2,0.5,1.7s0.3,1.1,0.4,1.6c0.2-0.8,0.4-1.4,0.5-2s0.3-1,0.4-1.3l1-3.1
	h5.8L24,13.1V21.9z"/>
<path d="M34.8,17.2v4.9c-0.3,0-0.6,0.1-0.8,0.1c-0.2,0-0.4,0-0.6,0c-1.6,0-2.9-0.5-4-1.4c-0.7-0.7-1.3-1.5-1.8-2.7
	c-0.5-1.1-0.7-2.3-0.7-3.5c0-2.1,0.7-3.9,2-5.3c1.3-1.4,2.9-2.1,4.9-2.1c0.1,0,0.3,0,0.4,0c0.2,0,0.4,0,0.6,0v4.7
	c-1.6,0.1-2.4,1-2.4,2.6c0,0.7,0.2,1.4,0.6,1.9c0.4,0.5,0.9,0.8,1.4,0.8c0.1,0,0.1,0,0.2,0C34.7,17.2,34.7,17.2,34.8,17.2z"/>
<path d="M42.2,19.1c0,0.8-0.3,1.6-0.9,2.2c-0.6,0.6-1.3,0.9-2.2,0.9c-0.9,0-1.6-0.3-2.2-0.9c-0.6-0.6-0.9-1.4-0.9-2.2
	c0-0.9,0.3-1.6,0.9-2.2s1.3-0.9,2.2-0.9c0.9,0,1.6,0.3,2.2,0.9C41.9,17.5,42.2,18.2,42.2,19.1z"/>
</svg>
