<?xml version="1.0" encoding="utf-8"?>
<!-- Generator: Adobe Illustrator 24.3.0, SVG Export Plug-In . SVG Version: 6.00 Build 0)  -->
<svg version="1.1" id="Capa_1" xmlns="http://www.w3.org/2000/svg" xmlns:xlink="http://www.w3.org/1999/xlink" x="0px" y="0px"
	 viewBox="0 0 103.9 23" style="enable-background:new 0 0 103.9 23;" xml:space="preserve">
<style type="text/css">
	.st0{fill:#FFFFFF;}
</style>
<g>
	<path class="st0" d="M23,1.1l-1,3.1c-0.1,0.3-0.2,0.8-0.4,1.3c-0.2,0.5-0.3,1.2-0.5,2c-0.1-0.5-0.3-1-0.4-1.6
		c-0.2-0.6-0.3-1.1-0.5-1.7l-1-3.1h-8.8v4.6c0,0.9,0.1,1.9,0.2,3.2c0.1,1.3,0.3,2.8,0.5,4.6l-0.6-1.8c-0.2-0.7-0.4-1.4-0.6-1.9
		c-0.2-0.6-0.4-1-0.5-1.5L6.4,1.1H1.1v20.6h5.3v-5.3c0-0.8,0-1.8-0.1-2.8c-0.1-1.1-0.1-2.3-0.3-3.8c0.2,0.6,0.4,1.3,0.6,2
		s0.5,1.5,0.8,2.3l2.8,7.6h5.3V6.4l2.8,6.6v8.7H24V13l4.8-11.9H23z"/>
	<path class="st0" d="M34.8,16.8v4.9c-0.3,0-0.6,0.1-0.8,0.1s-0.4,0-0.6,0c-1.6,0-2.9-0.5-4-1.4c-0.7-0.7-1.3-1.5-1.8-2.7
		s-0.7-2.3-0.7-3.5c0-2.1,0.7-3.9,2-5.3c1.3-1.4,2.9-2.1,4.9-2.1c0.1,0,0.3,0,0.4,0c0.2,0,0.4,0,0.6,0v4.7c-1.6,0.1-2.4,1-2.4,2.6
		c0,0.7,0.2,1.4,0.6,1.9c0.4,0.5,0.9,0.8,1.4,0.8c0.1,0,0.1,0,0.2,0C34.7,16.9,34.8,16.9,34.8,16.8z"/>
	<path class="st0" d="M46.4,14.4c0,2.2-0.5,4-1.5,5.4c-1,1.4-2.3,2.1-3.9,2.1c-1.4,0-2.7-0.5-3.7-1.6c-1.3-1.3-1.9-3.4-1.9-6.1
		c0-2.6,0.7-4.6,2-5.9c1-1,2.2-1.5,3.6-1.5c1.7,0,3,0.7,4,2.1S46.4,12.1,46.4,14.4z M42.3,14.4c0-2.6-0.5-4-1.4-4
		c-0.5,0-0.8,0.3-1.1,1c-0.3,0.6-0.4,1.6-0.4,2.8c0,1.2,0.1,2.2,0.4,2.9c0.3,0.7,0.6,1,1.1,1c0.5,0,0.8-0.3,1.1-1
		C42.1,16.5,42.3,15.6,42.3,14.4z"/>
	<path class="st0" d="M62.7,16.8v4.9c-0.3,0-0.6,0.1-0.8,0.1s-0.4,0-0.6,0c-1.6,0-2.9-0.5-4-1.4c-0.7-0.7-1.3-1.5-1.8-2.7
		s-0.7-2.3-0.7-3.5c0-2.1,0.7-3.9,2-5.3c1.3-1.4,2.9-2.1,4.9-2.1c0.1,0,0.3,0,0.4,0c0.2,0,0.4,0,0.6,0v4.7c-1.6,0.1-2.4,1-2.4,2.6
		c0,0.7,0.2,1.4,0.6,1.9c0.4,0.5,0.9,0.8,1.4,0.8c0.1,0,0.1,0,0.2,0C62.6,16.9,62.6,16.9,62.7,16.8z"/>
	<path class="st0" d="M45.6,21.7V6.9h3.8l2,5.2c0.1,0.3,0.2,0.7,0.4,1.1c0.1,0.4,0.3,0.9,0.5,1.4l0.4,1.3c-0.1-1.3-0.3-2.4-0.3-3.3
		c-0.1-0.9-0.1-1.7-0.1-2.3V6.9H56v14.8h-3.8l-2-5.5c-0.2-0.6-0.4-1.1-0.6-1.6s-0.3-1-0.4-1.5c0.1,1,0.1,2,0.2,2.7
		c0,0.8,0.1,1.5,0.1,2v3.8H45.6z"/>
	<path class="st0" d="M74.5,21.7h-4.3l-2-5.3c0-0.1-0.1-0.2-0.1-0.4c0-0.1-0.1-0.3-0.2-0.5l0,1v5.2h-4V6.9h4.1
		c1.8,0,3.2,0.4,4.1,1.1c1.1,0.9,1.7,2.2,1.7,3.9c0,1.8-0.8,3-2.3,3.7L74.5,21.7z M68,13.8h0.3c0.5,0,0.8-0.2,1.2-0.5
		s0.5-0.8,0.5-1.3c0-1.1-0.6-1.7-1.7-1.7H68V13.8z"/>
	<polygon class="st0" points="95.3,10.4 95.3,7 73.6,7 73.6,21.7 81.1,21.7 81.1,18.2 77.6,18.2 77.6,15.9 80.7,15.9 80.7,12.6 
		77.6,12.6 77.6,10.4 82.4,10.4 82.4,21.7 86.4,21.7 86.4,10.4 87.8,10.4 87.8,21.7 95.3,21.7 95.3,18.2 91.9,18.2 91.9,15.9 
		95,15.9 95,12.6 91.9,12.6 91.9,10.4 	"/>
	<path class="st0" d="M102.8,18.6c0,0.8-0.3,1.5-0.9,2.1c-0.6,0.6-1.3,0.9-2.2,0.9c-0.8,0-1.6-0.3-2.2-0.9c-0.6-0.6-0.9-1.3-0.9-2.2
		c0-0.8,0.3-1.6,0.9-2.2c0.6-0.6,1.3-0.9,2.2-0.9c0.9,0,1.6,0.3,2.2,0.9C102.5,16.9,102.8,17.7,102.8,18.6z"/>
</g>
<path d="M59.8-130.1v-20.6h5.3l2.8,7.2c0.2,0.4,0.3,0.9,0.5,1.5s0.4,1.2,0.6,1.9l0.6,1.8c-0.2-1.8-0.4-3.3-0.5-4.6
	c-0.1-1.3-0.2-2.3-0.2-3.2v-4.6h5.3v20.6h-5.3l-2.8-7.6c-0.3-0.8-0.6-1.6-0.8-2.3c-0.2-0.7-0.4-1.4-0.6-2c0.1,1.5,0.2,2.7,0.3,3.8
	s0.1,2,0.1,2.8v5.3H59.8z"/>
<path d="M83.8-130.1h-5.6v-8.7l-5.1-11.9h5.8l1,3.1c0.2,0.6,0.4,1.2,0.5,1.7c0.2,0.6,0.3,1.1,0.4,1.6c0.2-0.8,0.4-1.4,0.5-2
	s0.3-1,0.4-1.3l1-3.1h5.8l-4.8,11.9V-130.1z"/>
</svg>
